<?xml version="1.0" encoding="UTF-8" standalone="no"?>
<!-- Created with Inkscape (http://www.inkscape.org/) -->

<svg
   width="210mm"
   height="297mm"
   viewBox="0 0 210 297"
   version="1.1"
   id="svg1"
   xml:space="preserve"
   inkscape:version="1.3 (0e150ed6c4, 2023-07-21)"
   sodipodi:docname="drawing.svg"
   xmlns:inkscape="http://www.inkscape.org/namespaces/inkscape"
   xmlns:sodipodi="http://sodipodi.sourceforge.net/DTD/sodipodi-0.dtd"
   xmlns="http://www.w3.org/2000/svg"
   xmlns:svg="http://www.w3.org/2000/svg"><sodipodi:namedview
     id="namedview1"
     pagecolor="#ffffff"
     bordercolor="#000000"
     borderopacity="0.25"
     inkscape:showpageshadow="2"
     inkscape:pageopacity="0.0"
     inkscape:pagecheckerboard="0"
     inkscape:deskcolor="#d1d1d1"
     inkscape:document-units="mm"
     inkscape:zoom="0.69219276"
     inkscape:cx="98.238531"
     inkscape:cy="548.98003"
     inkscape:window-width="1920"
     inkscape:window-height="991"
     inkscape:window-x="-9"
     inkscape:window-y="-9"
     inkscape:window-maximized="1"
     inkscape:current-layer="layer1" /><defs
     id="defs1"><rect
       x="270.15596"
       y="374.17323"
       width="382.84133"
       height="379.95197"
       id="rect6" /><rect
       x="333.72207"
       y="407.40097"
       width="131.46627"
       height="65.010793"
       id="rect4" /><rect
       x="229.7048"
       y="343.83486"
       width="392.95412"
       height="358.2817"
       id="rect3" /><clipPath
       clipPathUnits="userSpaceOnUse"
       id="clipPath63"><g
         inkscape:label="Clip"
         id="use63"><rect
           style="opacity:1;fill:#cbcbcb;fill-opacity:1;stroke-width:0.264583"
           id="rect64"
           width="76.256752"
           height="33.063705"
           x="110.27605"
           y="68.420853" /></g></clipPath></defs><g
     inkscape:label="Layer 1"
     inkscape:groupmode="layer"
     id="layer1"><rect
       style="opacity:1;fill:#000000;fill-opacity:1;stroke-width:0.683278"
       id="rect1"
       width="221.31662"
       height="345.92664"
       x="331.78378"
       y="-8.7915058" /><path
       style="fill:#f12d2d;fill-opacity:1;stroke:none;stroke-width:0.346848"
       d="M -0.77806119,148.9942 V 0.30307516 H 104.91113 210.60032 V 148.9942 297.68531 H 104.91113 -0.77806119 Z"
       id="path1" /><ellipse
       style="opacity:1;fill:#ffffff;fill-opacity:1;stroke-width:0.420217"
       id="path2"
       cx="104.35135"
       cy="136.65057"
       rx="87.150574"
       ry="83.137062" /><text
       xml:space="preserve"
       transform="scale(0.26458333)"
       id="text3"
       style="white-space:pre;shape-inside:url(#rect3);opacity:1;fill:#ffffff;fill-opacity:0.890071"><tspan
         x="229.70508"
         y="354.78195"
         id="tspan1">p</tspan></text><text
       xml:space="preserve"
       transform="scale(0.26458333)"
       id="text4"
       style="fill:#ffffff;fill-opacity:0.89007092;opacity:1;white-space:pre;shape-inside:url(#rect4)" /><text
       xml:space="preserve"
       style="font-size:3.175px;opacity:1;fill:#ffffff;fill-opacity:0.890071;stroke-width:0.264583"
       x="102.44016"
       y="113.90734"
       id="text5"><tspan
         sodipodi:role="line"
         id="tspan5"
         style="stroke-width:0.264583"
         x="102.44016"
         y="113.90734">p</tspan></text><text
       xml:space="preserve"
       transform="matrix(1.8940784,0.01870792,0.03912837,1.2394055,-490.28919,-482.17358)"
       id="text6"
       style="font-style:normal;font-variant:normal;font-weight:normal;font-stretch:normal;font-size:192px;font-family:'Rockwell Condensed';-inkscape-font-specification:'Rockwell Condensed, ';white-space:pre;shape-inside:url(#rect6);opacity:1;fill:#f12d2d;fill-opacity:1"><tspan
         x="270.15625"
         y="545.91064"
         id="tspan2">p</tspan></text><path
       style="opacity:1;fill:#ffffff;fill-opacity:1;stroke-width:0.270807"
       id="path35"
       sodipodi:type="arc"
       sodipodi:cx="136.22316"
       sodipodi:cy="114.87072"
       sodipodi:rx="32.974655"
       sodipodi:ry="34.326077"
       sodipodi:start="0"
       sodipodi:end="6.2399059"
       sodipodi:open="true"
       sodipodi:arc-type="arc"
       d="m 169.19781,114.87072 a 32.974655,34.326077 0 0 1 -32.61788,34.32407 32.974655,34.326077 0 0 1 -33.32371,-33.58132 32.974655,34.326077 0 0 1 31.89679,-35.050745 32.974655,34.326077 0 0 1 34.01393,32.822845" /><rect
       style="opacity:1;fill:#ffffff;fill-opacity:1;stroke-width:0.264583"
       id="rect36"
       width="45.948288"
       height="28.65011"
       x="127.57407"
       y="121.08726" /><rect
       style="opacity:1;fill:#ffffff;fill-opacity:1;stroke-width:0.264583"
       id="rect37"
       width="35.136932"
       height="21.622721"
       x="108.65419"
       y="75.679535" /><path
       style="opacity:1;fill:#f12d2d;fill-opacity:1;stroke-width:0.420702"
       id="path38"
       sodipodi:type="arc"
       sodipodi:cx="113.47295"
       sodipodi:cy="134.47398"
       sodipodi:rx="12.954428"
       sodipodi:ry="23.553503"
       sodipodi:start="0"
       sodipodi:end="6.2399059"
       sodipodi:open="true"
       sodipodi:arc-type="arc"
       d="m 126.42738,134.47398 a 12.954428,23.553503 0 0 1 -12.81426,23.55213 12.954428,23.553503 0 0 1 -13.09156,-23.04248 12.954428,23.553503 0 0 1 12.53097,-24.05074 12.954428,23.553503 0 0 1 13.36272,22.52203" /><rect
       style="opacity:1;fill:#f12d2d;fill-opacity:1;stroke-width:0.226386"
       id="rect38"
       width="35.202518"
       height="23.89645"
       x="131.35805"
       y="132.7699" /><text
       xml:space="preserve"
       style="font-style:normal;font-variant:normal;font-weight:normal;font-stretch:normal;font-size:60.454px;font-family:'Rockwell Condensed';-inkscape-font-specification:'Rockwell Condensed, ';opacity:1;fill:#f12d2d;fill-opacity:1;stroke-width:2.83379"
       x="9.2489271"
       y="338.35938"
       id="text66"
       transform="scale(1.3027952,0.76758036)"><tspan
         sodipodi:role="line"
         id="tspan66"
         style="font-size:60.454px;fill:#ffffff;stroke-width:2.83379"
         x="9.2489271"
         y="338.35938">podcast</tspan></text></g><g
     inkscape:groupmode="layer"
     id="layer2"
     inkscape:label="Layer 2"><path
       id="path63"
       style="opacity:1;fill:#f12d2d;fill-opacity:1;stroke-width:0.179848"
       d="m 142.23515,89.545127 a 24.246802,31.870253 0.12172048 0 0 -31.68137,-2.200884 l 3.98365,5.043739 a 18.593271,24.439192 0.12171948 0 1 24.50418,1.416286 18.593271,24.439192 0.12171948 0 1 2.01331,32.157642 l 4.03849,5.11317 a 24.246802,31.870253 0.12172048 0 0 -2.85826,-41.529953 z m -6.71023,9.620647 a 12.476337,16.399027 0.12172048 0 0 -16.38946,-0.956201 l 3.83938,4.861047 a 7.6569338,10.064355 0.12172048 0 1 9.83959,0.76091 7.6569338,10.064355 0.12172048 0 1 0.94615,12.89497 l 3.10376,3.92972 a 12.476337,16.399027 0.12172048 0 0 -1.33942,-21.490446 z" /><path
       id="path63-2"
       style="fill:#f12d2d;fill-opacity:1;stroke-width:0.232608"
       d="m 123.67028,66.664944 a 39.327459,32.868702 67.755308 0 0 -14.24756,6.056808 l 5.80063,6.584638 a 30.157634,25.20484 67.755309 0 1 34.26407,4.882232 30.157634,25.20484 67.755309 0 1 4.34972,38.949848 l 5.88077,6.67572 a 39.327459,32.868702 67.755308 0 0 -5.97724,-50.335693 39.327459,32.868702 67.755308 0 0 -30.07043,-12.81355 z m 2.01936,18.548262 c -0.0534,-0.0013 -0.1039,0.0011 -0.12794,0.01181 -0.0591,0.02633 0.14311,0.01355 0.21151,0.0061 0.009,-9.12e-4 0.0495,-0.0074 0.0641,-0.0093 -0.0376,-0.0029 -0.0945,-0.0075 -0.14769,-0.0087 z" /></g></svg>
