<?xml version="1.0" standalone="no"?>
<!DOCTYPE svg PUBLIC "-//W3C//DTD SVG 1.0//EN" "http://www.w3.org/TR/2001/REC-SVG-20010904/DTD/svg10.dtd">
<svg xmlns="http://www.w3.org/2000/svg" xmlns:xlink="http://www.w3.org/1999/xlink" id="body_1" width="2843" height="4020">

<g transform="matrix(13.535354 0 0 13.535354 0.28790718 -0)">
	<g>
        <path d="M331.78378 -8.791506L553.1004 -8.791506L553.1004 337.13513L331.78378 337.13513z" stroke="none" fill="#000000" fill-rule="nonzero" />
        <path d="M-0.7780612 148.9942L-0.7780612 0.30307516L104.91113 0.30307516L210.60033 0.30307516L210.60033 148.9942L210.60033 297.6853L104.91113 297.6853L-0.7780612 297.6853L-0.7780612 148.9942z" stroke="none" fill="#F12D2D" fill-rule="nonzero" />
        <path d="M17.200775 136.65057C 17.200775 90.735245 56.219414 53.51351 104.35135 53.51351C 152.48328 53.51351 191.50192 90.735245 191.50192 136.65057C 191.50192 182.5659 152.48328 219.78763 104.35135 219.78763C 56.219414 219.78763 17.200775 182.5659 17.200775 136.65057" stroke="none" fill="#FFFFFF" fill-rule="nonzero" />
		<text transform="matrix(0.26458332 0 0 0.26458332 0 0)" x="229.70508" y="354.78195" style="fill:#FFFFFF;font-family:ABeeZee;" font-size="0">

		</text>
		<text transform="matrix(0.26458332 0 0 0.26458332 0 0)" x="229.70508" y="354.78195" style="fill:#FFFFFF;font-family:ABeeZee;" font-size="0">
p
		</text>
		<text x="102.44016" y="113.90734" style="fill:#FFFFFF;font-family:ABeeZee;" font-size="3.175">

		</text>
		<text x="102.44016" y="113.90734" style="fill:#FFFFFF;font-family:ABeeZee;" font-size="3.175">
p
		</text>
		<text transform="matrix(1.8940784 0.01870792 0.03912837 1.2394055 -490.28918 -482.17358)" x="270.15625" y="545.91064" style="fill:#F12D2D;font-family:ABeeZee;" font-size="192">

		</text>
		<text transform="matrix(1.8940784 0.01870792 0.03912837 1.2394055 -490.28918 -482.17358)" x="270.15625" y="545.91064" style="fill:#F12D2D;font-family:ABeeZee;" font-size="192">
p
		</text>
        <path d="M169.19781 114.87072C 169.19781 133.68361 154.6511 148.99126 136.57993 149.1948C 118.50876 149.39835 103.647255 134.42195 103.25621 115.61347C 102.86516 96.80499 117.090294 81.17328 135.153 80.56273C 153.21571 79.95218 168.38503 94.59031 169.16693 113.385574" stroke="none" fill="#FFFFFF" fill-rule="nonzero" />
        <path d="M127.57407 121.08726L173.52237 121.08726L173.52237 149.73737L127.57407 149.73737z" stroke="none" fill="#FFFFFF" fill-rule="nonzero" />
        <path d="M108.65419 75.679535L143.79112 75.679535L143.79112 97.30225L108.65419 97.30225z" stroke="none" fill="#FFFFFF" fill-rule="nonzero" />
        <path d="M126.42738 134.47398C 126.42738 147.38281 120.71256 157.88644 113.61312 158.02611C 106.51368 158.16579 100.675186 147.88943 100.52156 134.98363C 100.36794 122.07783 105.95642 111.35184 113.05253 110.93289C 120.14864 110.51395 126.10806 120.55818 126.415245 133.45493" stroke="none" fill="#F12D2D" fill-rule="nonzero" />
        <path d="M131.35805 132.7699L166.56056 132.7699L166.56056 156.66635L131.35805 156.66635z" stroke="none" fill="#F12D2D" fill-rule="nonzero" />
		<text transform="matrix(1.3027952 0 0 0.76758033 0 0)" x="9.248927" y="338.35938" style="fill:#FFFFFF;font-family:ABeeZee;" font-size="60.454">

		</text>
		<text transform="matrix(1.3027952 0 0 0.76758033 0 0)" x="9.248927" y="338.35938" style="fill:#FFFFFF;font-family:ABeeZee;" font-size="60.454">
podcast
		</text>
	</g>
	<g>
        <path d="M142.23515 89.54513C 133.56537 78.57069 120.073784 77.63344 110.55379 87.344246L110.55379 87.344246L114.53744 92.387985C 121.82489 84.70658 132.30968 85.31258 139.04163 93.80427C 145.76729 102.325134 146.62918 116.091736 141.05493 125.961914L141.05493 125.961914L145.09341 131.07509C 152.12094 118.20785 150.90372 100.52197 142.23515 89.545135L142.23515 89.545135L142.23515 89.54513zM135.52492 99.16577C 131.01659 93.50631 124.01713 93.097946 119.13546 98.20957L119.13546 98.20957L122.97484 103.07062C 125.96216 100.1464 130.11418 100.46748 132.81442 103.83153C 135.47292 107.252396 135.87216 112.69365 133.76057 116.7265L133.76057 116.7265L136.86433 120.65622C 140.56818 114.05352 139.99615 104.87563 135.52492 99.16577z" stroke="none" fill="#F12D2D" fill-rule="nonzero" />
        <path d="M123.67028 66.66495C 118.41748 67.2955 113.53283 69.37202 109.42272 72.721756L109.42272 72.721756L115.22335 79.3064C 125.02552 71.0102 139.68626 73.09918 149.48743 84.18863C 159.28119 95.31227 161.14326 111.98646 153.83714 123.13847L153.83714 123.13847L159.71791 129.8142C 168.90892 115.24492 166.36348 93.80909 153.74068 79.4785C 145.52882 70.15852 134.32819 65.385735 123.67024 66.66495L123.67024 66.66495L123.67028 66.66495zM125.689644 85.21321C 125.636246 85.211914 125.58575 85.21431 125.56171 85.22502C 125.50261 85.25135 125.70482 85.23857 125.77322 85.231125C 125.78222 85.23021 125.822716 85.223724 125.83732 85.221825C 125.79972 85.218925 125.74282 85.214325 125.68963 85.21313z" stroke="none" fill="#F12D2D" fill-rule="nonzero" />
	</g>
</g>
</svg>